HIERARCHY
ROOT Hips
{
  OFFSET -102.467 93.6631 130.069
  CHANNELS 6 Xposition Yposition Zposition Zrotation Xrotation Yrotation
  JOINT LeftUpLeg
  {
    OFFSET 8.64259 1.95398 -2.38835
    CHANNELS 3 Zrotation Xrotation Yrotation
    JOINT LeftLeg
    {
      OFFSET 43.7702 0 0
      CHANNELS 3 Zrotation Xrotation Yrotation
      JOINT LeftFoot
      {
        OFFSET 40.6238 0 0
        CHANNELS 3 Zrotation Xrotation Yrotation
        JOINT LeftToeBase
        {
          OFFSET 12.7242 0 0
          CHANNELS 3 Zrotation Xrotation Yrotation
          End Site
          {
            OFFSET 0 0 0
          }
        }
      }
    }
  }
  JOINT RightUpLeg
  {
    OFFSET -8.2249 1.95398 -2.59336
    CHANNELS 3 Zrotation Xrotation Yrotation
    JOINT RightLeg
    {
      OFFSET 43.5653 0 0
      CHANNELS 3 Zrotation Xrotation Yrotation
      JOINT RightFoot
      {
        OFFSET 40.6238 0 0
        CHANNELS 3 Zrotation Xrotation Yrotation
        JOINT RightToeBase
        {
          OFFSET 12.7242 0 0
          CHANNELS 3 Zrotation Xrotation Yrotation
          End Site
          {
            OFFSET 0 0 0
          }
        }
      }
    }
  }
  JOINT Spine
  {
    OFFSET 0.165834 0.87714 6.61349
    CHANNELS 3 Zrotation Xrotation Yrotation
    JOINT Spine1
    {
      OFFSET 7.38963 1.71661e-005 0
      CHANNELS 3 Zrotation Xrotation Yrotation
      JOINT Spine2
      {
        OFFSET 11.9445 1.14441e-005 0
        CHANNELS 3 Zrotation Xrotation Yrotation
        JOINT Spine3
        {
          OFFSET 14.7254 4.19617e-005 0
          CHANNELS 3 Zrotation Xrotation Yrotation
          JOINT Spine4
          {
            OFFSET 10.9679 0 0
            CHANNELS 3 Zrotation Xrotation Yrotation
            JOINT RightShoulder
            {
              OFFSET 2.46616 -1.6653 3.69651
              CHANNELS 3 Zrotation Xrotation Yrotation
              JOINT RightArm
              {
                OFFSET 13.0012 0 0
                CHANNELS 3 Zrotation Xrotation Yrotation
                JOINT RightForeArm
                {
                  OFFSET 28.7848 1.52588e-005 0
                  CHANNELS 3 Zrotation Xrotation Yrotation
                  JOINT RightHand
                  {
                    OFFSET 26.5688 1.52588e-005 0
                    CHANNELS 3 Zrotation Xrotation Yrotation
                    End Site
                    {
                      OFFSET 0 0 0
                    }
                  }
                }
              }
            }
            JOINT LeftShoulder
            {
              OFFSET 2.38034 -1.29275 -3.7523
              CHANNELS 3 Zrotation Xrotation Yrotation
              JOINT LeftArm
              {
                OFFSET 16.3182 6.10351e-005 0
                CHANNELS 3 Zrotation Xrotation Yrotation
                JOINT LeftForeArm
                {
                  OFFSET 27.0901 0 0
                  CHANNELS 3 Zrotation Xrotation Yrotation
                  JOINT LeftHand
                  {
                    OFFSET 24.5451 1.52588e-005 0
                    CHANNELS 3 Zrotation Xrotation Yrotation
                    End Site
                    {
                      OFFSET 0 0 0
                    }
                  }
                }
              }
            }
            JOINT Neck
            {
              OFFSET 5.0226 -0.0266342 0
              CHANNELS 3 Zrotation Xrotation Yrotation
              JOINT Head
              {
                OFFSET 6.69363 2.86102e-005 0
                CHANNELS 3 Zrotation Xrotation Yrotation
                End Site
                {
                  OFFSET 0 0 0
                }
              }
            }
          }
        }
      }
    }
  }
}
MOTION
Frames:	16
Frame Time:	0.0416667
-221.732 96.1657 197.57 94.8705 45.727 89.5266 -174.441 -0.228183 91.5997 -10.0891 11.7681 2.84809 59.7713 3.87003 9.56853 36.9897 -0.655662 2.16262 176.245 3.26535 89.0464 -15.3754 2.43999 -1.18685 63.9033 7.14696 18.2408 21.9478 1.80534 2.05249 -0.199758 7.23562 -90.3722 12.4005 -0.573708 -0.677725 0.729497 -0.602977 -0.651822 -21.8047 -0.343516 -0.81881 -1.79204 -0.343525 -0.818814 100.605 -50.3808 -84.5919 31.3316 -12.8302 -4.97533 -1.01653 -7.4051 -17.6646 -20.0091 -1.60807 4.14241 -82.3445 -49.2045 89.9633 -32.692 9.89469 -12.8857 10.4137 35.2374 -19.7325 -4.1793 -0.117189 -2.68031 4.08616 0.366137 -1.27362 -19.0632 0.387852 1.49974 
-221.779 96.1464 197.612 94.245 45.8359 89.6781 -174.667 0.0716816 91.2815 -9.76417 12.0963 2.76045 59.4002 3.76266 9.7506 37.3626 -0.61424 2.71378 176.215 3.91817 88.7881 -15.6852 2.36319 -1.20438 63.866 7.14642 18.0068 22.4615 1.71873 2.28017 -0.227518 7.17884 -90.3701 12.5139 -0.628183 -0.666606 0.843003 -0.656908 -0.63832 -21.6914 -0.398809 -0.824575 -1.67872 -0.398802 -0.824574 100.069 -50.2923 -85.4279 31.432 -12.4712 -4.41851 -1.42457 -6.65626 -18.105 -16.4132 -0.916325 1.35442 -82.1309 -50.1715 90.3663 -31.6087 10.1099 -13.0435 11.4557 37.8846 -20.8029 -4.61889 -0.135864 -2.9837 4.40364 0.350946 -0.408498 -19.5167 0.26318 1.15286 
-221.811 96.1417 197.609 94.2567 45.8097 89.647 -174.742 0.0716789 91.2384 -9.74856 11.8909 2.80769 59.4131 3.75619 9.59059 37.5076 -0.631019 2.6901 176.175 3.98139 88.7468 -15.8049 2.16771 -1.16598 63.972 7.02189 17.7804 22.2981 1.75308 2.27849 -0.218776 7.17456 -90.3775 12.5225 -0.614321 -0.682864 0.851495 -0.643788 -0.655176 -21.6828 -0.380699 -0.835919 -1.67011 -0.380708 -0.835926 99.7648 -50.6328 -85.885 31.1588 -11.7926 -4.01648 -1.75052 -6.78009 -18.5121 -16.2114 -0.932086 1.51115 -82.0781 -50.4116 90.4648 -31.4206 9.28483 -12.9615 9.65762 30.6681 -20.421 -10.5992 -0.31731 -1.09943 4.25145 0.103966 -0.517875 -19.0156 0.000587842 1.47405 
-221.826 96.1376 197.59 94.2937 45.9186 89.6435 -174.723 0.175195 91.2441 -9.99498 11.8461 2.79756 59.5505 3.80326 9.55375 37.4941 -0.646584 2.57216 176.125 3.87792 88.7185 -15.6687 2.34283 -1.13119 63.9421 7.1152 18.0473 22.1826 1.76753 2.17693 -0.2101 7.15269 -90.3821 12.5663 -0.599413 -0.693572 0.895296 -0.62937 -0.666524 -21.6389 -0.363253 -0.84165 -1.62622 -0.36327 -0.841649 99.9338 -50.5224 -85.6282 31.1812 -11.893 -3.94687 -1.58655 -6.66243 -18.2744 -16.4033 -0.93902 1.47957 -82.1981 -50.6027 90.2981 -31.0903 9.31665 -13.0498 9.53997 31.253 -20.124 -10.6585 -0.302878 -1.38645 3.59747 -0.130468 -0.583026 -18.5459 -0.222444 1.51484 
-221.785 96.1442 197.586 94.3821 45.9744 89.5545 -174.704 0.0541139 91.2611 -9.93344 12.0145 2.7966 59.4989 3.78517 9.5513 37.4477 -0.632735 2.63874 176.132 3.86183 88.719 -15.8199 2.60693 -1.17301 63.991 7.21182 18.2972 22.1694 1.768 2.15321 -0.204385 7.13868 -90.3696 12.5944 -0.582185 -0.670497 0.92342 -0.611128 -0.644232 -21.6108 -0.353782 -0.814465 -1.59816 -0.353772 -0.814466 99.9729 -50.4802 -85.5694 31.29 -11.8015 -3.75428 -1.44345 -6.38655 -18.2166 -16.5032 -0.987119 1.78065 -82.3387 -50.4856 90.0767 -31.1381 9.64219 -12.9943 10.4947 35.2608 -20.2143 -7.57761 -0.139428 -3.29438 3.35495 -0.267915 -0.606169 -18.6479 -0.316113 1.19499 
-221.744 96.1462 197.565 94.3989 45.8651 89.5336 -174.628 -0.0978825 91.2702 -9.70987 12.2236 2.72747 59.3594 3.83881 9.88244 37.4308 -0.619408 2.72163 176.176 3.89217 88.7567 -15.9123 2.10328 -1.18431 64.0006 6.96193 17.6521 22.5867 1.68046 2.16556 -0.18161 7.13212 -90.3712 12.6076 -0.537731 -0.678764 0.936594 -0.567068 -0.65445 -21.5975 -0.308881 -0.808992 -1.58485 -0.308878 -0.808987 100.134 -50.4632 -85.3195 31.2003 -11.7159 -3.66666 -1.60501 -6.59469 -18.3318 -15.9711 -0.969913 1.8936 -82.4926 -50.4972 89.8456 -31.1881 9.40483 -12.8219 10.2965 34.5896 -20.0757 -8.33327 -0.155104 -3.24441 4.01763 -0.239101 -0.209389 -19.7818 -0.25781 0.414221 
-221.725 96.1387 197.535 94.3603 45.7298 89.6332 -174.637 -0.0578958 91.3105 -9.81852 11.912 2.77613 59.5859 3.87722 9.67409 37.176 -0.58469 2.80012 176.193 3.82754 88.8163 -15.7297 1.96226 -1.15565 63.8498 6.92851 17.5448 22.8678 1.64509 2.3979 -0.170331 7.12304 -90.369 12.6258 -0.514334 -0.677078 0.954804 -0.543645 -0.653789 -21.5793 -0.287086 -0.80035 -1.5666 -0.287079 -0.800347 100.084 -50.3966 -85.4007 31.2384 -11.567 -3.61149 -1.74608 -7.02545 -18.2511 -16.1621 -0.964656 1.77014 -82.455 -50.3804 89.8927 -31.3691 8.95969 -12.721 9.37185 31.6061 -19.5475 -10.4747 -0.276157 -1.71354 3.86545 -0.17922 -0.359913 -19.7994 -0.173894 0.427009 
-221.696 96.1508 197.515 94.4552 45.5382 89.5999 -174.517 -0.202789 91.3816 -9.69129 11.7044 2.71362 59.5931 3.87562 9.65821 37.2993 -0.636321 2.51514 176.179 3.77229 88.8208 -15.7488 1.7029 -1.12966 63.7843 6.92634 17.462 22.7895 1.66921 2.46907 -0.138293 7.12518 -90.3724 12.6217 -0.452273 -0.691073 0.950646 -0.482256 -0.670515 -21.5832 -0.223685 -0.795044 -1.57059 -0.223687 -0.795052 100.095 -50.4582 -85.3812 31.0629 -11.5222 -3.60598 -1.69393 -6.87637 -18.1629 -15.9574 -0.952081 1.76918 -82.5105 -50.449 89.8145 -31.2243 9.12043 -12.7287 9.24979 31.7263 -19.405 -10.271 -0.285716 -1.54248 3.68553 -0.228328 -0.124516 -19.7499 -0.199027 -0.0418142 
-221.727 96.1457 197.515 94.4251 45.6496 89.6126 -174.544 -0.17343 91.3518 -9.69639 12.0573 2.71181 59.4365 3.88028 9.91144 37.4357 -0.618954 2.72784 176.126 3.81707 88.7794 -15.7899 1.78357 -1.09021 63.8566 6.92189 17.5238 22.6073 1.69555 2.35388 -0.15222 7.11744 -90.3717 12.6371 -0.479687 -0.686533 0.966065 -0.50945 -0.664767 -21.5679 -0.251205 -0.798956 -1.55524 -0.251214 -0.798962 99.9607 -50.6849 -85.5795 30.7364 -11.554 -3.58409 -1.59444 -6.73479 -18.1806 -16.2042 -0.996344 1.98096 -82.5853 -50.5735 89.7122 -31.0541 9.02403 -12.6537 9.46738 31.9608 -19.6641 -10.7703 -0.310456 -1.37504 3.78069 -0.346344 -0.28561 -20.0151 -0.318748 0.179784 
-221.752 96.1446 197.536 94.3662 45.7265 89.6606 -174.61 -0.0207407 91.3371 -9.87272 11.8873 2.76579 59.5305 3.82743 9.67686 37.4299 -0.619811 2.71738 176.192 3.85462 88.815 -15.8005 2.10313 -1.16166 63.9128 7.01146 17.7851 22.5709 1.69743 2.29789 -0.161236 7.10786 -90.3793 12.6561 -0.501248 -0.69896 0.985087 -0.531511 -0.676229 -21.5489 -0.268018 -0.817286 -1.5362 -0.26801 -0.817285 99.8672 -50.5795 -85.7289 30.7896 -11.4648 -3.53354 -1.71468 -6.82353 -18.2603 -15.7822 -0.936465 1.7328 -82.68 -50.8127 89.59 -30.7871 9.19025 -12.6336 9.23866 31.8567 -19.467 -9.75282 -0.283344 -1.38768 3.5089 -0.280855 -0.17764 -19.6339 -0.286941 0.285206 
-221.754 96.1482 197.548 94.3926 45.6487 89.5441 -174.633 -0.141878 91.2639 -9.67073 11.9405 2.73009 59.4107 3.78832 9.76483 37.5087 -0.600227 2.90631 176.147 3.89858 88.7167 -15.8508 2.00075 -1.15334 63.8065 7.01889 17.6755 22.5275 1.72666 2.49176 -0.150011 7.10675 -90.3676 12.6585 -0.473373 -0.678804 0.987476 -0.502796 -0.65732 -21.5465 -0.247508 -0.789691 -1.53386 -0.247512 -0.78969 99.8568 -50.636 -85.7426 30.7258 -11.4051 -3.57497 -1.85434 -7.08609 -18.158 -15.16 -0.942332 2.07074 -82.7068 -50.8453 89.5524 -30.6954 9.3382 -12.6305 9.37633 32.4504 -19.5267 -8.76889 -0.254572 -1.43952 3.49653 -0.243149 -0.289883 -19.6698 -0.257413 0.480006 
-221.77 96.1511 197.548 94.3309 45.7091 89.6223 -174.654 0.0267714 91.2722 -9.88902 11.8018 2.75527 59.5082 3.77884 9.6334 37.2961 -0.598186 2.78312 176.123 3.89669 88.7338 -15.7415 1.97993 -1.10361 63.7785 6.99899 17.6386 22.5615 1.70779 2.37852 -0.155321 7.09917 -90.3666 12.6737 -0.483469 -0.675696 1.00264 -0.512762 -0.653771 -21.5314 -0.258077 -0.789758 -1.51872 -0.258075 -0.78976 99.8184 -50.6539 -85.8009 30.7255 -11.4937 -3.50184 -1.80607 -6.92113 -18.2725 -15.0388 -0.96918 2.34395 -82.6946 -50.6904 89.5578 -30.753 9.58854 -12.6248 8.98391 31.9285 -19.2107 -7.87612 -0.237377 -1.31654 3.341 -0.215253 -0.190741 -19.6445 -0.22049 0.288785 
-221.766 96.1386 197.551 94.3527 45.7522 89.6075 -174.639 -0.0565598 91.2968 -9.73667 11.8844 2.75059 59.4958 3.81947 9.59067 37.4903 -0.625481 2.7176 176.15 3.93422 88.753 -15.8869 2.11179 -1.13963 63.8675 7.03794 17.7241 22.6715 1.69708 2.49813 -0.155496 7.10827 -90.3648 12.6555 -0.482965 -0.67221 0.984443 -0.512073 -0.650305 -21.5496 -0.258608 -0.786272 -1.53693 -0.258607 -0.786281 99.8952 -50.8059 -85.6757 30.7061 -11.3954 -3.53596 -1.81135 -6.98199 -18.2479 -15.3837 -0.993474 2.35562 -82.6167 -50.5545 89.6633 -30.7819 9.67591 -12.6979 10.1591 35.0762 -19.9476 -7.83929 -0.156255 -2.99328 3.85336 -0.136415 -0.539528 -20.2188 -0.140984 0.699792 
-221.792 96.1487 197.541 94.1912 45.7868 89.672 -174.701 0.0785682 91.2012 -9.77636 11.8587 2.73597 59.4665 3.81163 9.6444 37.5024 -0.622789 2.74413 176.166 4.11107 88.7143 -15.9821 1.86501 -1.14815 63.7833 6.93977 17.412 23.0181 1.60882 2.35497 -0.16431 7.10148 -90.3661 12.669 -0.501172 -0.672607 0.998005 -0.530281 -0.649908 -21.5361 -0.275863 -0.792125 -1.52341 -0.275855 -0.792134 99.8699 -50.949 -85.7083 30.6206 -11.117 -3.47526 -1.80475 -6.78201 -18.5648 -15.8562 -1.0214 2.33045 -82.5679 -50.4557 89.7288 -31.0964 9.52695 -12.6734 10.2885 35.1674 -19.9783 -7.90658 -0.149837 -3.14306 3.87927 -0.0157074 -0.769678 -20.1976 -0.0424842 1.1299 
-221.779 96.1465 197.504 94.2666 45.692 89.5954 -174.744 -0.107475 91.1447 -9.59185 11.7917 2.775 59.359 3.77346 9.69569 37.5442 -0.616464 2.81558 176.082 4.01726 88.6467 -15.8999 1.50626 -1.07211 63.7753 6.83042 17.1333 23.2216 1.57342 2.4251 -0.156857 7.11098 -90.3699 12.65 -0.487997 -0.681806 0.978979 -0.517522 -0.65968 -21.555 -0.260545 -0.796941 -1.54236 -0.26053 -0.79695 99.9569 -50.9083 -85.5762 30.7247 -10.5831 -3.59303 -1.87425 -6.75317 -18.4027 -15.4579 -1.02115 2.53063 -82.5042 -50.4419 89.8235 -31.2008 9.59723 -12.6866 10.2281 35.0171 -19.9895 -7.61717 -0.135273 -3.39395 4.04202 0.211105 -0.702396 -20.8999 0.152887 1.20801 
-221.78 96.1364 197.495 94.2837 45.7262 89.4754 -174.831 -0.0890716 91.0272 -9.65757 11.5815 2.79131 59.433 3.78892 9.58126 37.3008 -0.629825 2.56171 176.011 4.04214 88.5102 -15.9516 1.58718 -1.06413 63.8172 6.89861 17.3338 23.0073 1.60684 2.31488 -0.169516 7.11818 -90.3681 12.6356 -0.512331 -0.675536 0.964553 -0.541572 -0.652336 -21.5695 -0.285653 -0.798278 -1.55686 -0.28563 -0.79827 100.055 -50.8369 -85.4277 30.7486 -10.3874 -3.83219 -1.7534 -6.53049 -18.1285 -15.5265 -1.01465 2.44585 -82.3639 -50.7559 90.0606 -30.9407 9.72857 -12.727 10.5058 35.365 -20.3242 -7.35616 -0.118211 -3.69536 4.26736 0.574324 -0.535507 -21.1187 0.488564 1.16159 
